<?xml version="1.0" encoding="UTF-8" standalone="no"?>
<!-- Created with Inkscape (http://www.inkscape.org/) -->

<svg
   xmlns:dc="http://purl.org/dc/elements/1.1/"
   xmlns:cc="http://creativecommons.org/ns#"
   xmlns:rdf="http://www.w3.org/1999/02/22-rdf-syntax-ns#"
   xmlns:svg="http://www.w3.org/2000/svg"
   xmlns="http://www.w3.org/2000/svg"
   xmlns:sodipodi="http://sodipodi.sourceforge.net/DTD/sodipodi-0.dtd"
   xmlns:inkscape="http://www.inkscape.org/namespaces/inkscape"
   width="205mm"
   height="297mm"
   viewBox="0 0 205 297"
   version="1.1"
   id="svg8"
   inkscape:version="0.92.4 (5da689c313, 2019-01-14)"
   sodipodi:docname="xcrash_logo.svg"
   inkscape:export-filename="/home/caikelun/Documents/xcrash_logo.png"
   inkscape:export-xdpi="416.55695"
   inkscape:export-ydpi="416.55695">
  <defs
     id="defs2">
    <inkscape:perspective
       sodipodi:type="inkscape:persp3d"
       inkscape:vp_x="0 : 148.5 : 1"
       inkscape:vp_y="0 : 1000 : 0"
       inkscape:vp_z="210 : 148.5 : 1"
       inkscape:persp3d-origin="105 : 99 : 1"
       id="perspective3715" />
  </defs>
  <sodipodi:namedview
     id="base"
     pagecolor="#ffffff"
     bordercolor="#666666"
     borderopacity="1.0"
     inkscape:pageopacity="1"
     inkscape:pageshadow="2"
     inkscape:zoom="2.8284271"
     inkscape:cx="423.80901"
     inkscape:cy="499.53337"
     inkscape:document-units="mm"
     inkscape:current-layer="layer1"
     showgrid="false"
     inkscape:window-width="2560"
     inkscape:window-height="1472"
     inkscape:window-x="0"
     inkscape:window-y="54"
     inkscape:window-maximized="1" />
  <metadata
     id="metadata5">
    <rdf:RDF>
      <cc:Work
         rdf:about="">
        <dc:format>image/svg+xml</dc:format>
        <dc:type
           rdf:resource="http://purl.org/dc/dcmitype/StillImage" />
        <dc:title></dc:title>
      </cc:Work>
    </rdf:RDF>
  </metadata>
  <g
     inkscape:label="Layer 1"
     inkscape:groupmode="layer"
     id="layer1">
    <path
       d="m 95.62223,119.51863 0.0264,-11.80391 -10.62545,5.8782 z"
       style="fill:#ffffff;fill-opacity:1;fill-rule:evenodd;stroke:none;stroke-width:0.03527778"
       id="path4177"
       inkscape:connector-curvature="0"
       inkscape:export-xdpi="1189.5074"
       inkscape:export-ydpi="1189.5074" />
    <path
       d="m 95.6077,126.00621 0.0545,-24.31693 9.90544,5.45853 -0.0316,14.10402 -9.92831,4.75438"
       style="fill:#41f4ff;fill-opacity:1;fill-rule:nonzero;stroke:none;stroke-width:0.03527778"
       id="path4179"
       inkscape:connector-curvature="0"
       inkscape:export-xdpi="1189.5074"
       inkscape:export-ydpi="1189.5074" />
    <path
       d="m 81.3068,115.9094 13.54585,-8.44342 1.24548,-6.06146 -2.1935,-1.920487 -5.8648,0.720617 -8.91412,5.56101 -0.14095,7.48916 2.32204,2.65458"
       style="fill:#0000e9;fill-opacity:1;fill-rule:nonzero;stroke:none;stroke-width:0.03527778"
       id="path4181"
       inkscape:connector-curvature="0"
       inkscape:export-xdpi="1189.5074"
       inkscape:export-ydpi="1189.5074" />
    <path
       d="m 95.56431,126.00611 0.055,-5.16456 -16.58131,-8.97654 -0.38907,10.06038 12.69346,6.71357 4.22196,-2.63285"
       style="fill:#0082ff;fill-opacity:1;fill-rule:nonzero;stroke:none;stroke-width:0.03527778"
       id="path4183"
       inkscape:connector-curvature="0"
       inkscape:export-xdpi="1189.5074"
       inkscape:export-ydpi="1189.5074" />
    <path
       d="m 80.0331,107.16467 c 0,0 -0.0162,-0.50098 0.48747,-0.75738 0.23633,-0.14411 9.81703,-5.94349 9.81703,-5.94349 0,0 1.28074,-0.540387 2.64018,0.006 0.28788,0.15233 1.60817,0.85732 1.60817,0.85732 l -0.0121,5.39044 -9.83705,5.90465 -4.70972,-2.77988 z m 23.11118,-0.6079 c 0.57266,0.42813 0.82724,0.79911 0.97265,1.55793 -10e-4,0.49389 -0.0209,9.33799 -0.0265,11.83566 -0.0221,0.73374 -0.62074,1.03579 -0.62074,1.03579 l -6.77849,4.18285 0.0384,-17.12023 0.004,-5.41867 c 0,0 6.12717,3.732 6.41072,3.92667 z m -16.08531,7.41112 7.50875,-4.50579 -0.0198,8.85469 z m 5.96796,13.38368 c -1.20143,0.41359 -2.3047,-0.002 -2.3047,-0.002 0,0 -9.70418,-5.53569 -10.12589,-5.78711 -0.64207,-0.31184 -0.59897,-0.80915 -0.59897,-0.80915 l 0.0235,-8.13502 14.52093,8.41103 -0.0122,5.47155 c 0,0 -1.20713,0.75226 -1.50262,0.85037 z m -15.35265,-20.59785 -0.0371,13.71946 c 0,0 -0.0729,1.81666 1.19421,2.81079 0.22901,0.13106 11.36285,6.36489 11.36285,6.36489 0,0 1.70465,0.93517 3.64701,0.008 0.3469,-0.20736 8.24575,-5.15327 11.39674,-7.03005 0.74183,-0.44284 1.19972,-1.53896 1.20174,-2.43854 0.001,-0.56797 0.0264,-11.7898 0.0264,-11.7898 0,0 0.007,-2.91394 -2.89465,-4.36682 -3.82872,-2.19579 -10.10189,-5.794087 -10.24496,-5.864957 -1.91772,-0.93564 -3.83857,-0.005 -3.83857,-0.005 0,0 -8.56729,5.067897 -10.19857,6.023777 -1.63091,0.95237 -1.61513,2.56813 -1.61513,2.56813"
       style="fill:#100f0d;fill-opacity:1;fill-rule:nonzero;stroke:none;stroke-width:0.03527778"
       id="path4185"
       inkscape:connector-curvature="0"
       inkscape:export-xdpi="1189.5074"
       inkscape:export-ydpi="1189.5074" />
    <text
       xml:space="preserve"
       style="font-style:normal;font-variant:normal;font-weight:normal;font-stretch:normal;font-size:17.06826401px;line-height:1.25;font-family:'Courier 10 Pitch';-inkscape-font-specification:'Courier 10 Pitch, Normal';font-variant-ligatures:normal;font-variant-caps:normal;font-variant-numeric:normal;font-feature-settings:normal;text-align:start;letter-spacing:0px;word-spacing:0px;writing-mode:lr-tb;text-anchor:start;fill:#000000;fill-opacity:1;stroke:none;stroke-width:0.42670619"
       x="119.10595"
       y="112.44781"
       id="text5670"
       transform="scale(0.93906676,1.064887)"
       inkscape:export-xdpi="1189.5074"
       inkscape:export-ydpi="1189.5074"><tspan
         sodipodi:role="line"
         id="tspan5668"
         x="119.10595"
         y="112.44781"
         style="font-style:normal;font-variant:normal;font-weight:normal;font-stretch:normal;font-size:17.06826401px;font-family:'Courier 10 Pitch';-inkscape-font-specification:'Courier 10 Pitch, Normal';font-variant-ligatures:normal;font-variant-caps:normal;font-variant-numeric:normal;font-feature-settings:normal;text-align:start;writing-mode:lr-tb;text-anchor:start;stroke-width:0.42670619">xCrash</tspan></text>
    <path
       d="m 130.08822,176.98038 0.0264,-11.80391 -10.62545,5.8782 z"
       style="fill:#ffffff;fill-opacity:1;fill-rule:evenodd;stroke:none;stroke-width:0.03527778"
       id="path4177-3"
       inkscape:connector-curvature="0"
       inkscape:export-xdpi="1189.5074"
       inkscape:export-ydpi="1189.5074" />
    <path
       d="m 130.07368,183.46796 0.0545,-24.31693 9.90544,5.45853 -0.0316,14.10402 -9.92831,4.75438"
       style="fill:#41f4ff;fill-opacity:1;fill-rule:nonzero;stroke:none;stroke-width:0.03527778"
       id="path4179-3"
       inkscape:connector-curvature="0"
       inkscape:export-xdpi="1189.5074"
       inkscape:export-ydpi="1189.5074" />
    <path
       d="m 115.77278,173.37115 13.54585,-8.44342 1.24548,-6.06146 -2.1935,-1.92049 -5.8648,0.72062 -8.91412,5.56101 -0.14095,7.48916 2.32204,2.65458"
       style="fill:#0000e9;fill-opacity:1;fill-rule:nonzero;stroke:none;stroke-width:0.03527778"
       id="path4181-8"
       inkscape:connector-curvature="0"
       inkscape:export-xdpi="1189.5074"
       inkscape:export-ydpi="1189.5074" />
    <path
       d="m 130.0303,183.46786 0.055,-5.16456 -16.58132,-8.97654 -0.38907,10.06038 12.69346,6.71357 4.22197,-2.63285"
       style="fill:#0082ff;fill-opacity:1;fill-rule:nonzero;stroke:none;stroke-width:0.03527778"
       id="path4183-0"
       inkscape:connector-curvature="0"
       inkscape:export-xdpi="1189.5074"
       inkscape:export-ydpi="1189.5074" />
    <path
       d="m 114.49908,164.62642 c 0,0 -0.0162,-0.50098 0.48747,-0.75738 0.23633,-0.14411 9.81703,-5.94349 9.81703,-5.94349 0,0 1.28074,-0.54039 2.64018,0.006 0.28788,0.15233 1.60817,0.85732 1.60817,0.85732 l -0.0121,5.39044 -9.83705,5.90465 -4.70972,-2.77988 z m 23.11118,-0.6079 c 0.57267,0.42813 0.82725,0.79911 0.97266,1.55793 -0.001,0.49389 -0.0209,9.33799 -0.0265,11.83566 -0.0221,0.73374 -0.62074,1.03579 -0.62074,1.03579 l -6.77849,4.18285 0.0384,-17.12023 0.004,-5.41867 c 0,0 6.12717,3.732 6.41072,3.92667 z m -16.08531,7.41112 7.50875,-4.50579 -0.0198,8.85469 z m 5.96796,13.38368 c -1.20143,0.41359 -2.30469,-0.002 -2.30469,-0.002 0,0 -9.70419,-5.53569 -10.1259,-5.78711 -0.64207,-0.31173 -0.59897,-0.80904 -0.59897,-0.80904 l 0.0235,-8.13502 14.52094,8.41103 -0.0122,5.47155 c 0,0 -1.20714,0.75226 -1.50263,0.85037 z m -15.35265,-20.59785 -0.0371,13.71946 c 0,0 -0.0729,1.81666 1.19421,2.81079 0.22901,0.13106 11.36285,6.36489 11.36285,6.36489 0,0 1.70466,0.93517 3.64702,0.008 0.34689,-0.20736 8.24574,-5.15327 11.39674,-7.03005 0.74182,-0.44284 1.19971,-1.53896 1.20174,-2.43854 0.001,-0.56797 0.0264,-11.7898 0.0264,-11.7898 0,0 0.007,-2.91394 -2.89466,-4.36682 -3.82872,-2.19579 -10.10189,-5.79409 -10.24497,-5.86496 -1.91772,-0.93564 -3.83857,-0.005 -3.83857,-0.005 0,0 -8.56729,5.0679 -10.19857,6.02378 -1.63091,0.95237 -1.61513,2.56813 -1.61513,2.56813"
       style="fill:#100f0d;fill-opacity:1;fill-rule:nonzero;stroke:none;stroke-width:0.03527778"
       id="path4185-4"
       inkscape:connector-curvature="0"
       inkscape:export-xdpi="1189.5074"
       inkscape:export-ydpi="1189.5074" />
    <text
       xml:space="preserve"
       style="font-style:normal;font-variant:normal;font-weight:normal;font-stretch:normal;font-size:17.06826401px;line-height:1.25;font-family:'Courier 10 Pitch';-inkscape-font-specification:'Courier 10 Pitch, Normal';font-variant-ligatures:normal;font-variant-caps:normal;font-variant-numeric:normal;font-feature-settings:normal;text-align:start;letter-spacing:0px;word-spacing:0px;writing-mode:lr-tb;text-anchor:start;fill:#000000;fill-opacity:1;stroke:none;stroke-width:0.42670619"
       x="104.40741"
       y="190.47758"
       id="text5670-7"
       transform="scale(0.93906677,1.064887)"
       inkscape:export-xdpi="1189.5074"
       inkscape:export-ydpi="1189.5074"><tspan
         sodipodi:role="line"
         id="tspan5668-6"
         x="104.40741"
         y="190.47758"
         style="font-style:normal;font-variant:normal;font-weight:normal;font-stretch:normal;font-size:17.06826401px;font-family:'Courier 10 Pitch';-inkscape-font-specification:'Courier 10 Pitch, Normal';font-variant-ligatures:normal;font-variant-caps:normal;font-variant-numeric:normal;font-feature-settings:normal;text-align:start;writing-mode:lr-tb;text-anchor:start;stroke-width:0.42670619">xCrash</tspan></text>
  </g>
</svg>
